<?xml version="1.0" standalone="no"?>
<!DOCTYPE svg PUBLIC "-//W3C//DTD SVG 20010904//EN"
 "http://www.w3.org/TR/2001/REC-SVG-20010904/DTD/svg10.dtd">
<svg version="1.0" xmlns="http://www.w3.org/2000/svg"
 width="270.000000pt" height="270.000000pt" viewBox="0 0 270.000000 270.000000"
 preserveAspectRatio="xMidYMid meet">
<metadata>
Created by potrace 1.14, written by Peter Selinger 2001-2017
</metadata>
<g transform="translate(0.000000,270.000000) scale(0.100000,-0.100000)"
fill="#000000" stroke="none">
<path d="M0 2060 l0 -639 48 25 c85 44 224 50 293 14 20 -11 98 -8 187 7 l32
5 0 -57 0 -57 -55 7 -54 6 16 -32 c21 -41 20 -136 -1 -176 -22 -44 -90 -99
-144 -117 -28 -10 -80 -16 -134 -16 -71 0 -90 -3 -95 -16 -12 -32 20 -43 172
-59 211 -22 271 -55 282 -158 8 -65 -11 -110 -68 -161 -73 -65 -153 -90 -294
-90 -60 0 -127 5 -147 11 l-38 11 0 -284 0 -284 1350 0 1350 0 0 428 0 428
-60 -4 c-59 -4 -61 -4 -101 37 -40 40 -41 43 -37 92 4 40 12 58 37 82 29 29
37 32 96 32 l65 0 0 803 0 802 -1350 0 -1350 0 0 -640z m2442 -240 c3 0 20
-12 37 -26 22 -18 31 -34 31 -57 0 -82 -88 -89 -159 -13 -14 14 -31 26 -38 26
-24 0 -44 -69 -50 -176 l-6 -104 76 0 77 0 0 -45 0 -45 -70 0 -70 0 0 -201 c0
-112 4 -208 10 -219 6 -12 26 -20 60 -25 49 -7 50 -8 50 -41 l0 -34 -195 0
-195 0 0 34 c0 30 4 34 32 40 58 12 58 10 58 237 l0 209 -50 0 -50 0 0 34 c0
33 3 36 48 48 l47 14 6 76 c15 185 148 305 304 276 22 -4 43 -7 47 -8z m-990
-350 c21 -6 39 -14 42 -18 2 -4 7 -42 11 -84 l7 -78 -44 0 c-44 0 -45 0 -59
47 -18 56 -47 76 -102 69 -48 -5 -77 -31 -77 -67 0 -35 22 -52 160 -121 126
-64 153 -98 147 -185 -5 -69 -42 -117 -116 -152 -49 -23 -69 -26 -156 -26
-125 0 -215 25 -215 60 0 12 -3 50 -6 84 l-7 62 49 -3 48 -3 14 -48 c12 -41
19 -51 50 -64 47 -20 130 -13 149 13 37 50 1 95 -117 143 -135 55 -190 122
-176 213 11 71 74 132 157 157 46 13 195 13 241 1z m-574 -404 c34 -32 37 -38
37 -91 0 -53 -3 -59 -37 -91 -33 -29 -45 -34 -89 -34 -47 0 -55 4 -91 40 -39
38 -40 42 -36 90 8 79 52 118 136 119 35 1 49 -5 80 -33z m980 0 c34 -32 37
-38 37 -91 0 -53 -3 -59 -37 -91 -33 -29 -45 -34 -89 -34 -47 0 -55 4 -91 40
-39 38 -40 42 -36 90 8 79 52 118 136 119 35 1 49 -5 80 -33z"/>
<path d="M181 1397 c-40 -20 -62 -68 -62 -135 -1 -67 20 -125 49 -141 32 -17
80 -13 101 8 42 42 50 155 16 222 -25 48 -66 66 -104 46z"/>
<path d="M0 1055 c0 -23 2 -24 26 -13 24 11 25 13 8 25 -26 19 -34 16 -34 -12z"/>
<path d="M0 830 c0 -5 7 -7 15 -4 19 8 19 14 0 14 -8 0 -15 -4 -15 -10z"/>
<path d="M80 788 c-21 -35 -26 -88 -10 -117 14 -27 83 -51 143 -51 62 0 125
27 155 65 28 35 28 57 0 90 -19 21 -37 27 -98 35 -41 5 -96 10 -123 10 -43 0
-49 -3 -67 -32z"/>
</g>
</svg>
